<svg width="37" height="37" viewBox="0 0 37 37" fill="none" xmlns="http://www.w3.org/2000/svg">
<path d="M20.0417 30.8333H9.25C8.84113 30.8333 8.449 30.6708 8.15988 30.3817C7.87076 30.0926 7.70833 29.7005 7.70833 29.2916V7.70825C7.70833 7.29938 7.87076 6.90725 8.15988 6.61813C8.449 6.32901 8.84113 6.16659 9.25 6.16659H16.9583V10.7916C16.9583 12.0182 17.4456 13.1946 18.313 14.062C19.1803 14.9293 20.3567 15.4166 21.5833 15.4166H26.2083V18.4999C26.2083 18.9088 26.3708 19.3009 26.6599 19.59C26.949 19.8792 27.3411 20.0416 27.75 20.0416C28.1589 20.0416 28.551 19.8792 28.8401 19.59C29.1292 19.3009 29.2917 18.9088 29.2917 18.4999V13.8749C29.2917 13.8749 29.2917 13.8749 29.2917 13.7824C29.2756 13.6408 29.2446 13.5013 29.1992 13.3662V13.2274C29.125 13.0689 29.0262 12.9232 28.9063 12.7958L19.6563 3.54575C19.5288 3.42584 19.3831 3.32696 19.2246 3.25284C19.1786 3.2463 19.1319 3.2463 19.0858 3.25284C18.9292 3.16302 18.7563 3.10537 18.5771 3.08325H9.25C8.02337 3.08325 6.84699 3.57053 5.97963 4.43788C5.11228 5.30524 4.625 6.48163 4.625 7.70825V29.2916C4.625 30.5182 5.11228 31.6946 5.97963 32.562C6.84699 33.4293 8.02337 33.9166 9.25 33.9166H20.0417C20.4505 33.9166 20.8427 33.7542 21.1318 33.465C21.4209 33.1759 21.5833 32.7838 21.5833 32.3749C21.5833 31.966 21.4209 31.5739 21.1318 31.2848C20.8427 30.9957 20.4505 30.8333 20.0417 30.8333ZM20.0417 8.34034L24.0346 12.3333H21.5833C21.1745 12.3333 20.7823 12.1708 20.4932 11.8817C20.2041 11.5926 20.0417 11.2005 20.0417 10.7916V8.34034ZM12.3333 12.3333C11.9245 12.3333 11.5323 12.4957 11.2432 12.7848C10.9541 13.0739 10.7917 13.466 10.7917 13.8749C10.7917 14.2838 10.9541 14.6759 11.2432 14.965C11.5323 15.2542 11.9245 15.4166 12.3333 15.4166H13.875C14.2839 15.4166 14.676 15.2542 14.9651 14.965C15.2542 14.6759 15.4167 14.2838 15.4167 13.8749C15.4167 13.466 15.2542 13.0739 14.9651 12.7848C14.676 12.4957 14.2839 12.3333 13.875 12.3333H12.3333ZM21.5833 18.4999H12.3333C11.9245 18.4999 11.5323 18.6623 11.2432 18.9515C10.9541 19.2406 10.7917 19.6327 10.7917 20.0416C10.7917 20.4505 10.9541 20.8426 11.2432 21.1317C11.5323 21.4208 11.9245 21.5833 12.3333 21.5833H21.5833C21.9922 21.5833 22.3843 21.4208 22.6735 21.1317C22.9626 20.8426 23.125 20.4505 23.125 20.0416C23.125 19.6327 22.9626 19.2406 22.6735 18.9515C22.3843 18.6623 21.9922 18.4999 21.5833 18.4999ZM31.9279 26.6553L28.8446 23.572C28.698 23.4316 28.5251 23.3216 28.3358 23.2483C27.9605 23.0941 27.5395 23.0941 27.1642 23.2483C26.9749 23.3216 26.802 23.4316 26.6554 23.572L23.5721 26.6553C23.2818 26.9456 23.1187 27.3394 23.1187 27.7499C23.1187 28.1605 23.2818 28.5542 23.5721 28.8445C23.8624 29.1348 24.2561 29.2979 24.6667 29.2979C25.0772 29.2979 25.4709 29.1348 25.7612 28.8445L26.2083 28.382V32.3749C26.2083 32.7838 26.3708 33.1759 26.6599 33.465C26.949 33.7542 27.3411 33.9166 27.75 33.9166C28.1589 33.9166 28.551 33.7542 28.8401 33.465C29.1292 33.1759 29.2917 32.7838 29.2917 32.3749V28.382L29.7388 28.8445C29.8821 28.989 30.0526 29.1037 30.2404 29.182C30.4283 29.2602 30.6298 29.3005 30.8333 29.3005C31.0369 29.3005 31.2384 29.2602 31.4262 29.182C31.6141 29.1037 31.7846 28.989 31.9279 28.8445C32.0724 28.7012 32.1871 28.5307 32.2654 28.3428C32.3436 28.1549 32.3839 27.9534 32.3839 27.7499C32.3839 27.5464 32.3436 27.3449 32.2654 27.157C32.1871 26.9692 32.0724 26.7987 31.9279 26.6553ZM18.5 27.7499C18.9089 27.7499 19.301 27.5875 19.5901 27.2984C19.8792 27.0093 20.0417 26.6171 20.0417 26.2083C20.0417 25.7994 19.8792 25.4072 19.5901 25.1181C19.301 24.829 18.9089 24.6666 18.5 24.6666H12.3333C11.9245 24.6666 11.5323 24.829 11.2432 25.1181C10.9541 25.4072 10.7917 25.7994 10.7917 26.2083C10.7917 26.6171 10.9541 27.0093 11.2432 27.2984C11.5323 27.5875 11.9245 27.7499 12.3333 27.7499H18.5Z" fill="#9CB3FC"/>
</svg>
