<svg width="272" height="177" viewBox="0 0 272 177" fill="none" xmlns="http://www.w3.org/2000/svg">
<g clip-path="url(#clip0_28_130)">
<path d="M100.394 2.60171C100.745 3.58364 100.697 4.66426 100.258 5.61056C99.8201 6.55686 99.0276 7.29303 98.0515 7.66033C97.8356 7.74097 97.613 7.80234 97.3862 7.84372L95.13 21.6584L89.8375 16.7717L92.7914 4.40222C92.6821 3.35989 92.9874 2.31642 93.6412 1.49737C94.2951 0.678327 95.2451 0.149517 96.2857 0.0252737C97.1612 -0.0750856 98.0449 0.125288 98.7914 0.593478C99.538 1.06167 100.103 1.76986 100.394 2.60171Z" fill="#FFB6B6"/>
<path d="M61.3354 33.9046C61.3354 33.9046 65.4431 28.4773 80.3489 28.6259L88.8094 25.552L90.7429 7.82764L97.5104 9.43894L96.5436 31.3527L82.0419 39.7314L63.0285 43.5986L61.3354 33.9046Z" fill="#E6E7E8"/>
<path d="M38.4312 167.522L42.336 169.186L50.6127 154.917L44.8497 152.461L38.4312 167.522Z" fill="#FFB6B6"/>
<path d="M70.6985 171.217L74.9427 171.217L76.962 154.845L70.6976 154.846L70.6985 171.217Z" fill="#FFB6B6"/>
<path d="M70.5491 175.645L83.6011 175.644V175.479C83.601 174.132 83.0658 172.84 82.113 171.887C81.1603 170.934 79.8682 170.399 78.5209 170.399L76.1364 168.59L71.6882 170.399L70.5488 170.399L70.5491 175.645Z" fill="#2F2E41"/>
<path d="M36.0571 170.356L48.0643 175.473L48.129 175.321C48.6572 174.082 48.6714 172.683 48.1685 171.433C47.6656 170.183 46.6868 169.184 45.4473 168.656L43.9629 166.057L39.1616 165.977L38.1134 165.531L36.0571 170.356Z" fill="#2F2E41"/>
<path d="M74.8619 74.3253L81.3125 113.604L79.557 119.457L81.8606 123.602L78.4777 160.008L79.8509 163.031L76.0142 165.398H68.2072L67.7928 132.439L65.8643 127.6V124.933L61.9385 104.836L61.2157 127.825L60.0737 132.671L61.0329 136.122L59.7796 138.54L49.0383 161.604H40.2839L40.961 156.388C39.3925 155.594 43.3159 153.273 43.6929 151.556L42.4038 148.656L43.6929 143.177L44.8748 132.472L43.6284 109.876L44.2149 79.4468L54.4558 71.6157L74.8619 74.3253Z" fill="#2F2E41"/>
<path d="M59.153 22.5976C64.039 22.5976 67.9999 18.6367 67.9999 13.7507C67.9999 8.86469 64.039 4.90381 59.153 4.90381C54.267 4.90381 50.3061 8.86469 50.3061 13.7507C50.3061 18.6367 54.267 22.5976 59.153 22.5976Z" fill="#FFB6B6"/>
<path d="M44.1795 80.83C44.1638 80.83 44.1481 80.8279 44.133 80.8237C43.9697 80.7781 43.8407 80.7422 44.4301 75.6453L45.0663 71.6166L44.4452 68.0593L43.4006 67.0146L45.0795 65.3358L44.0506 57.7212L41.2536 42.9477C40.7728 40.3984 41.1464 37.7618 42.3167 35.4465C43.4869 33.1313 45.3883 31.2668 47.7261 30.1422L53.2325 25.0348L63.3652 24.959L66.607 29.1732L75.1834 32.0866L73.7614 61.5069L74.7588 63.8344L74.6734 63.9116C74.6668 63.9176 74.0023 64.5185 73.7038 64.849C73.5592 65.0543 73.8304 66.5879 74.1654 67.89L74.595 71.1043L73.5124 71.878L74.92 73.5406L75.3275 76.5968L75.0976 76.5397C74.8386 76.4752 49.1597 70.2289 44.3568 80.6956C44.3446 80.7335 44.3211 80.7667 44.2893 80.7908C44.2576 80.8148 44.2192 80.8285 44.1795 80.83Z" fill="#E6E7E8"/>
<path d="M56.8898 22.1646C56.852 22.0814 56.8143 21.9979 56.7767 21.9141C56.7912 21.9145 56.8055 21.9166 56.82 21.917L56.8898 22.1646Z" fill="#2F2E41"/>
<path d="M50.0601 5.30652C50.4801 4.91022 51.0261 4.67416 51.6026 4.63962C52.1746 4.65806 52.7548 5.17474 52.6362 5.73471C53.687 3.8742 55.3596 2.44325 57.3603 1.69304C59.361 0.942821 61.562 0.921281 63.577 1.6322C64.9989 2.13384 66.3932 3.13742 66.7198 4.60936C66.7516 4.99581 66.8669 5.37076 67.0576 5.70836C67.2229 5.88884 67.4374 6.01702 67.6747 6.07713C67.9119 6.13723 68.1616 6.12663 68.3928 6.04663L68.4069 6.04249C68.486 6.01546 68.5715 6.0128 68.6522 6.03487C68.7329 6.05693 68.8051 6.10269 68.8595 6.16625C68.9139 6.2298 68.948 6.30822 68.9573 6.39135C68.9667 6.47448 68.9509 6.5585 68.912 6.63255L68.5097 7.38286C69.0168 7.49591 69.5437 7.48469 70.0456 7.35019C70.129 7.32833 70.2171 7.3328 70.2978 7.36298C70.3785 7.39317 70.448 7.44759 70.4965 7.51878C70.5451 7.58997 70.5705 7.67445 70.5692 7.76063C70.5678 7.8468 70.5399 7.93046 70.4891 8.00012C69.8205 8.91484 68.9477 9.66087 67.94 10.1788C66.9323 10.6968 65.8176 10.9724 64.6846 10.9837C63.0772 10.9739 61.4532 10.4199 59.8888 10.7896C59.2836 10.9326 58.7181 11.2092 58.2338 11.5993C57.7494 11.9894 57.3586 12.4829 57.0899 13.0437C56.8212 13.6046 56.6814 14.2184 56.6809 14.8403C56.6804 15.4622 56.8191 16.0763 57.0869 16.6375C56.6063 16.1119 55.6773 16.2363 55.1857 16.7517C54.9593 17.0276 54.792 17.3471 54.694 17.6903C54.5961 18.0335 54.5697 18.3931 54.6164 18.7469C54.7475 19.8307 55.0692 20.8827 55.5668 21.8543C53.6659 21.7958 51.8288 21.1554 50.3036 20.0194C48.7784 18.8835 47.6385 17.3068 47.038 15.5023C46.4376 13.6979 46.4054 11.7526 46.9458 9.92922C47.4862 8.10587 48.5733 6.49233 50.0601 5.30652Z" fill="#2F2E41"/>
<path d="M102.608 170.501L100.123 166.508L99.6267 168.79C99.5397 169.19 99.4526 169.596 99.3721 169.999C98.6663 169.396 97.9155 168.838 97.1808 168.303C94.925 166.666 92.6702 165.027 90.4164 163.386L91.1222 167.478C91.5573 169.999 92.0117 172.57 93.088 174.874C93.2073 175.135 93.3361 175.393 93.4748 175.645H103.961C104.045 175.411 104.104 175.169 104.135 174.923C104.138 174.907 104.139 174.891 104.138 174.874C104.303 173.311 103.439 171.839 102.608 170.501Z" fill="#F0F0F0"/>
<path d="M16.49 170.501L18.9746 166.508L19.4709 168.79C19.5579 169.19 19.6449 169.596 19.7255 169.999C20.4312 169.396 21.1821 168.838 21.9168 168.303C24.1726 166.666 26.4274 165.027 28.6811 163.386L27.9754 167.478C27.5403 169.999 27.0859 172.57 26.0096 174.874C25.8903 175.135 25.7614 175.393 25.6228 175.645H15.1364C15.0521 175.411 14.9937 175.169 14.9624 174.923C14.9598 174.907 14.9587 174.891 14.9593 174.874C14.7948 173.311 15.6585 171.839 16.49 170.501Z" fill="#F0F0F0"/>
<path d="M126.629 176.029H0.383725C0.333242 176.029 0.283228 176.019 0.236545 176C0.189863 175.981 0.147429 175.952 0.11168 175.917C0.075931 175.881 0.0475664 175.839 0.0282134 175.792C0.00886048 175.745 -0.00109863 175.695 -0.00109863 175.645C-0.00109863 175.594 0.00886048 175.544 0.0282134 175.498C0.0475664 175.451 0.075931 175.409 0.11168 175.373C0.147429 175.338 0.189863 175.309 0.236545 175.29C0.283228 175.271 0.333242 175.261 0.383725 175.261H126.629C126.731 175.261 126.829 175.302 126.901 175.374C126.973 175.446 127.013 175.543 127.013 175.645C127.013 175.747 126.973 175.844 126.901 175.916C126.829 175.988 126.731 176.029 126.629 176.029Z" fill="#CACACA"/>
<path d="M179.517 12.5728H141.225C140.829 12.5723 140.45 12.4148 140.171 12.1351C139.892 11.8554 139.735 11.4762 139.735 11.0809C139.735 10.6856 139.892 10.3065 140.171 10.0268C140.45 9.74706 140.829 9.58963 141.225 9.58904H179.517C181.441 9.56218 181.46 12.5999 179.517 12.5728Z" fill="#E4E4E4"/>
<path d="M231.1 20.377H141.225C140.829 20.3765 140.45 20.219 140.171 19.9393C139.892 19.6596 139.735 19.2804 139.735 18.8851C139.735 18.4898 139.892 18.1107 140.171 17.831C140.45 17.5513 140.829 17.3938 141.225 17.3932H231.1C233.024 17.3664 233.043 20.4041 231.1 20.377Z" fill="#E4E4E4"/>
<path d="M262.41 24.5735C267.706 24.5735 272 20.2798 272 14.9833C272 9.68675 267.706 5.39307 262.41 5.39307C257.113 5.39307 252.82 9.68675 252.82 14.9833C252.82 20.2798 257.113 24.5735 262.41 24.5735Z" fill="#6C63FF"/>
<path d="M261.101 19.9744C260.936 19.9744 260.773 19.9358 260.624 19.8617C260.476 19.7877 260.347 19.6801 260.248 19.5476L257.632 16.0591C257.548 15.947 257.486 15.8194 257.451 15.6837C257.417 15.5479 257.409 15.4066 257.429 15.2679C257.448 15.1291 257.495 14.9956 257.567 14.875C257.638 14.7544 257.733 14.649 257.845 14.5649C257.957 14.4808 258.084 14.4197 258.22 14.3849C258.356 14.3502 258.497 14.3425 258.636 14.3624C258.775 14.3823 258.908 14.4293 259.029 14.5008C259.149 14.5723 259.255 14.6668 259.339 14.779L261.05 17.0611L265.447 10.4667C265.524 10.3502 265.624 10.2501 265.741 10.1721C265.857 10.0942 265.988 10.0399 266.125 10.0124C266.262 9.98494 266.404 9.98479 266.541 10.012C266.679 10.0392 266.81 10.0932 266.926 10.1709C267.043 10.2486 267.143 10.3485 267.221 10.4649C267.299 10.5813 267.353 10.7119 267.38 10.8493C267.408 10.9867 267.408 11.1281 267.381 11.2655C267.354 11.403 267.3 11.5337 267.222 11.6503L261.989 19.4993C261.895 19.6413 261.767 19.7585 261.618 19.8411C261.469 19.9237 261.302 19.9693 261.131 19.974C261.121 19.9742 261.111 19.9744 261.101 19.9744Z" fill="white"/>
<path d="M122.017 5.99121H97.7292C97.3497 5.99164 96.9859 6.14258 96.7176 6.4109C96.4493 6.67922 96.2983 7.04302 96.2979 7.42249V22.5442C96.2983 22.9236 96.4493 23.2874 96.7176 23.5558C96.9859 23.8241 97.3497 23.975 97.7292 23.9754H122.017C122.397 23.975 122.761 23.8241 123.029 23.5558C123.297 23.2874 123.448 22.9236 123.449 22.5442V7.42249C123.448 7.04302 123.297 6.67921 123.029 6.41088C122.761 6.14256 122.397 5.99163 122.017 5.99121ZM122.487 16.8533C122.481 18.3928 121.872 19.8687 120.791 20.9643C119.709 22.06 118.242 22.6882 116.702 22.7141C114.238 22.7462 118.066 22.7587 115.094 22.7587C108.297 22.7587 101.21 22.6937 98.5653 22.6516C98.2174 22.6445 97.8861 22.5016 97.6421 22.2534C97.3981 22.0053 97.2608 21.6717 97.2595 21.3237V7.42361C97.2596 7.299 97.3091 7.17951 97.3971 7.09129C97.4851 7.00306 97.6045 6.95329 97.7291 6.95284H122.016C122.141 6.95298 122.26 7.00246 122.349 7.09045C122.437 7.17843 122.487 7.29776 122.487 7.42234V16.8533Z" fill="#CACACA"/>
<path d="M118.813 15.6423H100.308C100.145 15.6421 99.9849 15.5913 99.8511 15.497C99.7173 15.4026 99.6158 15.2693 99.5606 15.1151L96.7027 7.09692C96.66 6.97724 96.6467 6.84907 96.6639 6.72318C96.6811 6.59729 96.7282 6.47737 96.8014 6.37348C96.8745 6.2696 96.9715 6.18479 97.0843 6.12619C97.197 6.06759 97.3221 6.03691 97.4492 6.03673L122.267 5.99268H122.269C122.4 5.99268 122.529 6.02528 122.645 6.08756C122.76 6.14983 122.859 6.23982 122.931 6.34947C123.003 6.45912 123.047 6.585 123.059 6.71582C123.071 6.84663 123.05 6.97831 122.998 7.09903L119.543 15.1613C119.482 15.3041 119.38 15.4259 119.25 15.5114C119.121 15.5969 118.969 15.6425 118.813 15.6423Z" fill="#CACACA"/>
<path d="M109.859 17.6197C110.951 17.6197 111.837 16.7344 111.837 15.6424C111.837 14.5503 110.951 13.665 109.859 13.665C108.767 13.665 107.882 14.5503 107.882 15.6424C107.882 16.7344 108.767 17.6197 109.859 17.6197Z" fill="#3F3D56"/>
<path d="M179.517 55.1168H141.225C140.829 55.1162 140.45 54.9588 140.171 54.679C139.892 54.3993 139.735 54.0202 139.735 53.6249C139.735 53.2296 139.892 52.8504 140.171 52.5707C140.45 52.291 140.829 52.1336 141.225 52.133H179.517C181.441 52.1061 181.46 55.1439 179.517 55.1168Z" fill="#E4E4E4"/>
<path d="M231.1 62.921H141.225C140.829 62.921 140.449 62.7638 140.17 62.484C139.89 62.2042 139.733 61.8248 139.733 61.4291C139.733 61.0334 139.89 60.6539 140.17 60.3742C140.449 60.0944 140.829 59.9372 141.225 59.9372H231.1C233.024 59.9103 233.043 62.9481 231.1 62.921Z" fill="#E4E4E4"/>
<path d="M262.41 67.1174C267.706 67.1174 272 62.8238 272 57.5272C272 52.2307 267.706 47.937 262.41 47.937C257.113 47.937 252.82 52.2307 252.82 57.5272C252.82 62.8238 257.113 67.1174 262.41 67.1174Z" fill="#6C63FF"/>
<path d="M261.101 62.5184C260.936 62.5184 260.773 62.4798 260.624 62.4057C260.476 62.3316 260.347 62.2241 260.248 62.0916L257.632 58.603C257.548 58.491 257.486 58.3634 257.451 58.2277C257.417 58.0919 257.409 57.9506 257.429 57.8119C257.448 57.6731 257.495 57.5396 257.567 57.419C257.638 57.2984 257.733 57.193 257.845 57.1089C257.957 57.0248 258.084 56.9637 258.22 56.9289C258.356 56.8942 258.497 56.8865 258.636 56.9064C258.775 56.9263 258.908 56.9733 259.029 57.0448C259.149 57.1163 259.255 57.2108 259.339 57.323L261.05 59.6051L265.447 53.0107C265.524 52.894 265.624 52.7937 265.741 52.7156C265.857 52.6375 265.988 52.5831 266.125 52.5555C266.263 52.5279 266.404 52.5277 266.542 52.5549C266.679 52.5821 266.81 52.6361 266.927 52.7138C267.043 52.7916 267.144 52.8916 267.222 53.0081C267.299 53.1246 267.354 53.2554 267.381 53.3928C267.409 53.5303 267.409 53.6719 267.381 53.8094C267.354 53.9469 267.3 54.0777 267.222 54.1942L261.989 62.0433C261.895 62.1853 261.767 62.3024 261.618 62.385C261.469 62.4676 261.302 62.5132 261.131 62.518C261.121 62.5182 261.111 62.5184 261.101 62.5184Z" fill="white"/>
<path d="M122.017 48.5352H97.7292C97.3497 48.5356 96.9859 48.6865 96.7176 48.9548C96.4493 49.2232 96.2983 49.587 96.2979 49.9664V65.0881C96.2983 65.4676 96.4493 65.8314 96.7176 66.0997C96.9859 66.368 97.3497 66.519 97.7292 66.5194H122.017C122.397 66.519 122.761 66.3681 123.029 66.0997C123.297 65.8314 123.448 65.4676 123.449 65.0881V49.9664C123.448 49.587 123.297 49.2232 123.029 48.9548C122.761 48.6865 122.397 48.5356 122.017 48.5352ZM122.487 59.3973C122.481 60.9368 121.872 62.4126 120.791 63.5083C119.709 64.604 118.242 65.2321 116.702 65.258C114.238 65.2901 118.066 65.3026 115.094 65.3026C108.297 65.3026 101.21 65.2377 98.5653 65.1956C98.2174 65.1884 97.8861 65.0455 97.6421 64.7974C97.3981 64.5493 97.2608 64.2156 97.2595 63.8676V49.9676C97.2596 49.843 97.3091 49.7235 97.3971 49.6352C97.4851 49.547 97.6045 49.4973 97.7291 49.4968H122.016C122.141 49.497 122.26 49.5464 122.349 49.6344C122.437 49.7224 122.487 49.8417 122.487 49.9663V59.3973Z" fill="#CACACA"/>
<path d="M118.813 58.1863H100.308C100.145 58.186 99.9849 58.1353 99.8511 58.0409C99.7173 57.9466 99.6159 57.8132 99.5607 57.6591L96.7027 49.6409C96.66 49.5212 96.6467 49.393 96.6639 49.2671C96.6811 49.1412 96.7282 49.0213 96.8014 48.9174C96.8745 48.8135 96.9715 48.7287 97.0843 48.6701C97.197 48.6115 97.3221 48.5808 97.4492 48.5807L122.267 48.5366H122.269C122.4 48.5366 122.529 48.5692 122.645 48.6315C122.76 48.6938 122.859 48.7838 122.931 48.8934C123.003 49.0031 123.047 49.1289 123.059 49.2598C123.071 49.3906 123.05 49.5223 122.998 49.643L119.543 57.7052C119.482 57.8481 119.38 57.9698 119.25 58.0553C119.121 58.1409 118.969 58.1864 118.813 58.1863Z" fill="#CACACA"/>
<path d="M109.859 60.1636C110.951 60.1636 111.837 59.2784 111.837 58.1863C111.837 57.0943 110.951 56.209 109.859 56.209C108.767 56.209 107.882 57.0943 107.882 58.1863C107.882 59.2784 108.767 60.1636 109.859 60.1636Z" fill="#3F3D56"/>
<path d="M179.517 97.6607H141.225C140.829 97.6601 140.45 97.5027 140.171 97.223C139.892 96.9433 139.735 96.5641 139.735 96.1688C139.735 95.7735 139.892 95.3944 140.171 95.1147C140.45 94.835 140.829 94.6775 141.225 94.6769H179.517C181.441 94.6501 181.46 97.6878 179.517 97.6607Z" fill="#E4E4E4"/>
<path d="M231.1 105.465H141.225C140.829 105.465 140.449 105.308 140.17 105.028C139.89 104.748 139.733 104.369 139.733 103.973C139.733 103.577 139.89 103.198 140.17 102.918C140.449 102.638 140.829 102.481 141.225 102.481H231.1C233.024 102.454 233.043 105.492 231.1 105.465Z" fill="#E4E4E4"/>
<path d="M262.41 109.661C267.706 109.661 272 105.368 272 100.071C272 94.7746 267.706 90.481 262.41 90.481C257.113 90.481 252.82 94.7746 252.82 100.071C252.82 105.368 257.113 109.661 262.41 109.661Z" fill="#6C63FF"/>
<path d="M261.101 105.062C260.936 105.062 260.773 105.024 260.624 104.95C260.476 104.876 260.347 104.768 260.248 104.636L257.632 101.147C257.548 101.035 257.487 100.907 257.452 100.772C257.417 100.636 257.409 100.495 257.429 100.356C257.449 100.217 257.496 100.084 257.567 99.9634C257.639 99.8429 257.733 99.7376 257.845 99.6535C257.957 99.5695 258.085 99.5083 258.22 99.4736C258.356 99.4388 258.497 99.4311 258.636 99.4509C258.775 99.4707 258.908 99.5177 259.029 99.5891C259.149 99.6604 259.255 99.7549 259.339 99.8669L261.05 102.149L265.447 95.5547C265.524 95.4379 265.624 95.3376 265.741 95.2595C265.857 95.1814 265.988 95.127 266.125 95.0994C266.263 95.0719 266.404 95.0717 266.542 95.0988C266.679 95.126 266.81 95.18 266.927 95.2578C267.043 95.3356 267.144 95.4355 267.222 95.5521C267.3 95.6686 267.354 95.7993 267.381 95.9368C267.409 96.0743 267.409 96.2158 267.381 96.3533C267.354 96.4908 267.3 96.6216 267.222 96.7382L261.989 104.587C261.895 104.729 261.767 104.846 261.618 104.929C261.469 105.012 261.302 105.057 261.131 105.062C261.121 105.062 261.111 105.062 261.101 105.062Z" fill="white"/>
<path d="M122.017 91.0791H97.7292C97.3497 91.0795 96.9859 91.2305 96.7176 91.4988C96.4493 91.7671 96.2983 92.1309 96.2979 92.5104V107.632C96.2983 108.012 96.4493 108.375 96.7176 108.644C96.9859 108.912 97.3497 109.063 97.7292 109.063H122.017C122.397 109.063 122.761 108.912 123.029 108.644C123.297 108.375 123.448 108.012 123.449 107.632V92.5104C123.448 92.1309 123.297 91.7671 123.029 91.4988C122.761 91.2305 122.397 91.0795 122.017 91.0791ZM122.487 101.941C122.481 103.481 121.872 104.957 120.791 106.052C119.709 107.148 118.242 107.776 116.702 107.802C114.238 107.834 118.066 107.847 115.094 107.847C108.297 107.847 101.21 107.782 98.5653 107.74C98.2174 107.732 97.8861 107.589 97.6421 107.341C97.3981 107.093 97.2608 106.76 97.2595 106.412V92.5115C97.2596 92.3869 97.3091 92.2674 97.3971 92.1792C97.4851 92.091 97.6045 92.0412 97.7291 92.0407H122.016C122.141 92.0409 122.26 92.0904 122.349 92.1784C122.437 92.2663 122.487 92.3857 122.487 92.5103V101.941Z" fill="#CACACA"/>
<path d="M118.813 100.73H100.308C100.145 100.73 99.9849 100.679 99.8511 100.585C99.7173 100.491 99.6159 100.357 99.5607 100.203L96.7027 92.1848C96.66 92.0651 96.6467 91.937 96.6639 91.8111C96.6811 91.6852 96.7282 91.5652 96.8014 91.4614C96.8745 91.3575 96.9715 91.2727 97.0843 91.2141C97.197 91.1555 97.3221 91.1248 97.4492 91.1246L122.267 91.0806H122.269C122.4 91.0806 122.529 91.1132 122.645 91.1754C122.76 91.2377 122.859 91.3277 122.931 91.4374C123.003 91.547 123.047 91.6729 123.059 91.8037C123.071 91.9345 123.05 92.0662 122.998 92.1869L119.543 100.249C119.482 100.392 119.38 100.514 119.25 100.599C119.121 100.685 118.969 100.73 118.813 100.73Z" fill="#CACACA"/>
<path d="M109.859 102.708C110.951 102.708 111.837 101.822 111.837 100.73C111.837 99.6382 110.951 98.7529 109.859 98.7529C108.767 98.7529 107.882 99.6382 107.882 100.73C107.882 101.822 108.767 102.708 109.859 102.708Z" fill="#3F3D56"/>
<path d="M69.4678 81.6909C68.425 81.707 67.4178 81.3126 66.6632 80.5928C65.9085 79.873 65.467 78.8855 65.4338 77.8432C65.4271 77.6128 65.4407 77.3822 65.4746 77.1543L53.1238 70.5669L59.4552 67.1313L70.2131 73.9135C71.2351 74.1459 72.1245 74.7711 72.6892 75.654C73.2538 76.5369 73.4483 77.6066 73.2306 78.6318C73.0435 79.493 72.5691 80.2649 71.8853 80.8208C71.2015 81.3767 70.349 81.6835 69.4678 81.6909Z" fill="#FFB6B6"/>
<path d="M63.9903 76.9563L43.3505 68.8991L40.0692 52.3586L41.2878 42.8482C41.4531 41.558 41.8754 40.3139 42.5297 39.1897C43.184 38.0654 44.057 37.0837 45.0972 36.3025C46.1374 35.5214 47.3236 34.9568 48.5858 34.6419C49.8479 34.3271 51.1604 34.2684 52.4456 34.4695L52.5148 34.4803L52.5541 34.5384C52.7117 34.7711 56.3524 40.3967 51.453 54.3546L51.6339 63.2251L67.8645 70.8015L63.9903 76.9563Z" fill="#E6E7E8"/>
</g>
<defs>
<clipPath id="clip0_28_130">
<rect width="272" height="176.028" fill="white"/>
</clipPath>
</defs>
</svg>
