<svg width="57" height="57" viewBox="0 0 57 57" fill="none" xmlns="http://www.w3.org/2000/svg">
<path d="M47.1912 20.4249C47.0143 20.0181 46.7269 19.669 46.3617 19.4172C45.9966 19.1653 45.5681 19.0208 45.125 18.9999H34.2475L37.2637 7.74243C37.3598 7.39016 37.3734 7.02048 37.3033 6.66212C37.2333 6.30376 37.0816 5.96638 36.86 5.67618C36.6387 5.38877 36.3546 5.15585 36.0294 4.99529C35.7041 4.83473 35.3465 4.7508 34.9837 4.74993H18.3587C17.8226 4.73156 17.296 4.89528 16.8647 5.21441C16.4334 5.53355 16.1229 5.98929 15.9837 6.50743L9.61875 30.2574C9.52269 30.6097 9.50914 30.9794 9.57916 31.3377C9.64919 31.6961 9.80089 32.0335 10.0225 32.3237C10.2462 32.6143 10.5341 32.8491 10.8638 33.0098C11.1934 33.1705 11.5558 33.2527 11.9225 33.2499H21.1137L16.815 49.2574C16.6742 49.7736 16.7117 50.3222 16.9216 50.8144C17.1316 51.3065 17.5015 51.7134 17.9715 51.969C18.4416 52.2246 18.9841 52.3141 19.5113 52.2228C20.0386 52.1315 20.5195 51.8649 20.8762 51.4662L46.7637 22.9662C47.072 22.6287 47.2763 22.2093 47.3521 21.7586C47.428 21.3078 47.3721 20.8447 47.1912 20.4249ZM23.94 41.0399L26.4812 31.5399C26.5773 31.1877 26.5909 30.818 26.5208 30.4596C26.4508 30.1013 26.2991 29.7639 26.0775 29.4737C25.8562 29.1863 25.5721 28.9534 25.2469 28.7928C24.9216 28.6322 24.564 28.5483 24.2012 28.5474H15.0812L20.1637 9.49993H31.8725L28.8562 20.7574C28.7594 21.1162 28.7481 21.4927 28.8232 21.8566C28.8984 22.2205 29.0579 22.5617 29.2889 22.8528C29.5199 23.1439 29.816 23.3767 30.1533 23.5325C30.4907 23.6883 30.8599 23.7628 31.2312 23.7499H39.71L23.94 41.0399Z" fill="#C1D4FF"/>
</svg>
