<svg width="272" height="188" viewBox="0 0 272 188" fill="none" xmlns="http://www.w3.org/2000/svg">
<g clip-path="url(#clip0_28_78)">
<path d="M220.14 89.9019L226.84 104.981L225.228 123.631C224.721 124.059 224.363 124.636 224.204 125.28C224.044 125.923 224.091 126.601 224.338 127.216C224.586 127.831 225.02 128.353 225.581 128.708C226.142 129.062 226.8 129.231 227.462 129.191C228.124 129.15 228.757 128.903 229.271 128.483C229.784 128.063 230.152 127.492 230.323 126.852C230.494 126.211 230.458 125.533 230.222 124.913C229.985 124.294 229.559 123.765 229.005 123.401L229.267 123.355L231.892 104.718L227.563 85.9199L220.14 89.9019Z" fill="#FFB8B8"/>
<path d="M201.01 188C207.613 188 212.966 187.443 212.966 186.755C212.966 186.068 207.613 185.511 201.01 185.511C194.406 185.511 189.053 186.068 189.053 186.755C189.053 187.443 194.406 188 201.01 188Z" fill="#E6E6E6"/>
<path d="M236.38 188C242.984 188 248.337 187.443 248.337 186.755C248.337 186.068 242.984 185.511 236.38 185.511C229.777 185.511 224.424 186.068 224.424 186.755C224.424 187.443 229.777 188 236.38 188Z" fill="#E6E6E6"/>
<path d="M263.78 188C268.32 188 272 187.617 272 187.144C272 186.672 268.32 186.289 263.78 186.289C259.24 186.289 255.56 186.672 255.56 187.144C255.56 187.617 259.24 188 263.78 188Z" fill="#E6E6E6"/>
<path d="M266.131 180.658C266.075 182.791 265.718 184.905 265.071 186.939C265.056 186.986 265.04 187.032 265.025 187.08H261.061C261.066 187.037 261.07 186.99 261.074 186.939C261.338 183.902 262.862 165.424 261.04 162.265C261.2 162.521 266.44 171.011 266.131 180.658Z" fill="#E6E6E6"/>
<path d="M265.835 186.939C265.802 186.986 265.768 187.033 265.732 187.08H262.759C262.782 187.04 262.808 186.994 262.838 186.939C263.329 186.053 264.783 183.404 266.132 180.658C267.583 177.707 268.913 174.645 268.801 173.536C268.836 173.786 269.839 181.408 265.835 186.939Z" fill="#E6E6E6"/>
<path d="M182.764 119.16H2.17373C1.59743 119.159 1.04493 118.93 0.637426 118.523C0.22992 118.115 0.000682865 117.563 0 116.987V2.17227C0.000607135 1.59634 0.229821 1.04416 0.637343 0.636914C1.04486 0.229666 1.59741 0.000606727 2.17373 0H182.764C183.34 0.000606727 183.892 0.229666 184.3 0.636914C184.707 1.04416 184.937 1.59634 184.937 2.17227V116.987C184.937 117.563 184.707 118.115 184.3 118.523C183.892 118.93 183.34 119.159 182.764 119.16ZM2.17373 0.85951C1.82545 0.859889 1.49154 0.998319 1.24526 1.24443C0.99899 1.49053 0.86047 1.82422 0.86009 2.17227V116.987C0.86047 117.335 0.99899 117.669 1.24526 117.915C1.49154 118.161 1.82545 118.3 2.17373 118.3H182.764C183.112 118.3 183.446 118.161 183.692 117.915C183.938 117.669 184.077 117.335 184.077 116.987V2.17227C184.077 1.82422 183.938 1.49053 183.692 1.24443C183.446 0.998319 183.112 0.859889 182.764 0.85951H2.17373Z" fill="#E6E6E6"/>
<path d="M135.987 16.9268H40.3046C39.8347 16.9273 39.3842 17.1141 39.0519 17.4461C38.7197 17.7781 38.5328 18.2283 38.5322 18.6979V100.461C38.5328 100.931 38.7197 101.381 39.0519 101.713C39.3842 102.045 39.8347 102.232 40.3046 102.232H135.987C136.457 102.232 136.907 102.045 137.24 101.713C137.572 101.381 137.759 100.931 137.759 100.461V18.6979C137.759 18.2283 137.572 17.7781 137.24 17.4461C136.907 17.1141 136.457 16.9273 135.987 16.9268ZM137.048 100.461C137.048 100.743 136.936 101.013 136.737 101.212C136.539 101.412 136.269 101.525 135.987 101.526H40.3046C40.0227 101.525 39.7527 101.413 39.5538 101.213C39.3549 101.013 39.2434 100.743 39.2438 100.461V18.6979C39.2434 18.4162 39.3549 18.1459 39.5538 17.9463C39.7527 17.7467 40.0227 17.6341 40.3046 17.6333H135.987C136.269 17.6346 136.539 17.7474 136.737 17.9469C136.936 18.1464 137.048 18.4164 137.048 18.6979V100.461Z" fill="#3F3D56"/>
<path d="M62.3905 87.6942C62.3905 87.8202 62.3871 87.9463 62.3805 88.0689C62.2837 89.914 61.4821 91.6516 60.141 92.9234C58.8 94.1951 57.0216 94.9041 55.1728 94.9041C53.324 94.9041 51.5456 94.1951 50.2045 92.9234C48.8634 91.6516 48.0619 89.914 47.9651 88.0689C47.9585 87.9463 47.9551 87.8202 47.9551 87.6942C47.9551 85.7812 48.7155 83.9466 50.0691 82.594C51.4226 81.2413 53.2584 80.4814 55.1726 80.4814C57.0869 80.4814 58.9227 81.2413 60.2762 82.594C61.6298 83.9466 62.3902 85.7812 62.3902 87.6942H62.3905Z" fill="#6C63FF"/>
<path d="M128.552 82.8846H71.8403C71.5291 82.8964 71.2345 83.0282 71.0184 83.2525C70.8024 83.4767 70.6817 83.7758 70.6817 84.0871C70.6817 84.3984 70.8024 84.6975 71.0184 84.9217C71.2345 85.146 71.5291 85.2778 71.8403 85.2896H128.552C128.871 85.301 129.181 85.1856 129.415 84.9687C129.648 84.7517 129.786 84.451 129.798 84.1324C129.811 83.8139 129.696 83.5036 129.479 83.2697C129.262 83.0357 128.962 82.8973 128.643 82.8846C128.613 82.8835 128.582 82.8835 128.552 82.8846Z" fill="#6C63FF"/>
<path d="M96.243 90.0991H71.8403C71.5216 90.0991 71.216 90.2256 70.9907 90.4508C70.7654 90.676 70.6388 90.9814 70.6388 91.2999C70.6388 91.6183 70.7654 91.9237 70.9907 92.1489C71.216 92.3741 71.5216 92.5006 71.8403 92.5006H96.243C96.5617 92.5011 96.8675 92.3751 97.0932 92.1503C97.3189 91.9255 97.446 91.6203 97.4466 91.3019C97.4471 90.9834 97.321 90.6778 97.0961 90.4522C96.8711 90.2267 96.5657 90.0997 96.247 90.0991H96.243Z" fill="#E6E6E6"/>
<path d="M158.719 73.9645H63.0358C62.5001 73.9639 61.9864 73.7509 61.6075 73.3723C61.2286 72.9937 61.0155 72.4804 61.0149 71.9449V29.982C61.0155 29.4465 61.2286 28.9332 61.6075 28.5546C61.9864 28.176 62.5001 27.963 63.0358 27.9624H158.718C159.254 27.963 159.767 28.176 160.146 28.5546C160.525 28.9332 160.738 29.4465 160.739 29.982V71.9438C160.738 72.4792 160.526 72.9927 160.147 73.3715C159.768 73.7503 159.255 73.9636 158.719 73.9645Z" fill="#6C63FF"/>
<path d="M82.5229 42.8376C82.2038 42.8236 81.8923 42.9369 81.6568 43.1525C81.4214 43.3681 81.2813 43.6684 81.2674 43.9872C81.2534 44.3061 81.3668 44.6174 81.5825 44.8527C81.7983 45.088 82.0987 45.228 82.4178 45.2419C82.4528 45.2434 82.4878 45.2434 82.5229 45.2419H139.233C139.543 45.2284 139.836 45.0958 140.051 44.8718C140.265 44.6479 140.385 44.3498 140.385 44.0397C140.385 43.7297 140.265 43.4316 140.051 43.2076C139.836 42.9837 139.543 42.8511 139.233 42.8376H82.5229Z" fill="white"/>
<path d="M82.5229 49.8029C82.2038 49.789 81.8923 49.9023 81.6568 50.1179C81.4214 50.3335 81.2813 50.6337 81.2674 50.9526C81.2534 51.2714 81.3668 51.5827 81.5825 51.818C81.7983 52.0533 82.0987 52.1933 82.4178 52.2072C82.4528 52.2088 82.4878 52.2088 82.5229 52.2072H139.233C139.543 52.1937 139.836 52.0611 140.051 51.8372C140.265 51.6132 140.385 51.3151 140.385 51.0051C140.385 50.695 140.265 50.3969 140.051 50.173C139.836 49.949 139.543 49.8164 139.233 49.8029H82.5229Z" fill="white"/>
<path d="M82.5229 56.6843C82.2129 56.6978 81.9201 56.8303 81.7056 57.0543C81.491 57.2783 81.3713 57.5764 81.3713 57.8864C81.3713 58.1965 81.491 58.4946 81.7056 58.7185C81.9201 58.9425 82.2129 59.0751 82.5229 59.0886H106.926C107.084 59.0955 107.241 59.0712 107.39 59.0172C107.539 58.9631 107.675 58.8804 107.792 58.7736C107.908 58.6669 108.003 58.5382 108.069 58.395C108.136 58.2518 108.174 58.0968 108.181 57.9389C108.188 57.7811 108.164 57.6234 108.11 57.4749C108.056 57.3264 107.973 57.19 107.866 57.0735C107.759 56.957 107.63 56.8626 107.487 56.7959C107.344 56.7291 107.189 56.6911 107.031 56.6843C106.996 56.6827 106.961 56.6827 106.926 56.6843H82.5229Z" fill="white"/>
<path d="M7.71586 7.60671C8.54128 7.60671 9.21041 6.93803 9.21041 6.11317C9.21041 5.28831 8.54128 4.61963 7.71586 4.61963C6.89045 4.61963 6.22131 5.28831 6.22131 6.11317C6.22131 6.93803 6.89045 7.60671 7.71586 7.60671Z" fill="#6C63FF"/>
<path d="M12.9466 7.60671C13.772 7.60671 14.4412 6.93803 14.4412 6.11317C14.4412 5.28831 13.772 4.61963 12.9466 4.61963C12.1212 4.61963 11.4521 5.28831 11.4521 6.11317C11.4521 6.93803 12.1212 7.60671 12.9466 7.60671Z" fill="#6C63FF"/>
<path d="M18.1774 7.60671C19.0028 7.60671 19.6719 6.93803 19.6719 6.11317C19.6719 5.28831 19.0028 4.61963 18.1774 4.61963C17.352 4.61963 16.6828 5.28831 16.6828 6.11317C16.6828 6.93803 17.352 7.60671 18.1774 7.60671Z" fill="#6C63FF"/>
<path d="M217.853 71.1617C221.53 71.1617 224.511 68.1831 224.511 64.5088C224.511 60.8346 221.53 57.856 217.853 57.856C214.177 57.856 211.196 60.8346 211.196 64.5088C211.196 68.1831 214.177 71.1617 217.853 71.1617Z" fill="#FFB8B8"/>
<path d="M204.686 99.9886L222.171 103.239C228.065 92.4472 231.316 82.7024 225.83 76.4202L215.461 75.8105C208.836 82.8906 203.233 89.7615 207.04 94.7066L204.686 99.9886Z" fill="#6C63FF"/>
<path d="M220.256 91.5147C224.257 93.0446 227.971 91.7153 231.38 87.3544L226.328 77.6133L219.89 78.8882L220.256 91.5147Z" fill="#6C63FF"/>
<path d="M203.058 180.852L209.971 180.497L214.443 133.716L237.214 180.244L244.33 180.041L230.709 139.201C230.172 125.576 229.61 111.987 223.797 106.084L221.764 101.817L205.499 98.3633L203.263 102.63C198.077 114.73 201.122 149.302 203.058 180.852Z" fill="#2F2E41"/>
<path d="M211.394 87.1895L205.702 102.632L195.379 117.312C194.717 117.355 194.085 117.605 193.574 118.027C193.062 118.449 192.696 119.021 192.528 119.662C192.36 120.304 192.398 120.982 192.637 121.6C192.877 122.219 193.304 122.746 193.86 123.108C194.416 123.47 195.072 123.647 195.735 123.616C196.398 123.584 197.034 123.345 197.553 122.932C198.071 122.519 198.447 121.953 198.626 121.314C198.805 120.676 198.779 119.997 198.55 119.375L198.789 119.494L212.004 106.086L219.73 88.4085L211.394 87.1895Z" fill="#FFB8B8"/>
<path d="M209.972 87.1891C212.82 90.3877 216.729 90.9137 221.764 88.6113V77.64L215.461 75.8115L209.972 87.1891Z" fill="#6C63FF"/>
<path d="M238.733 83.0349C237.72 81.7694 236.307 80.8996 234.938 80.0338C233.568 79.168 232.177 78.248 231.246 76.9215C229.76 74.8048 229.689 72.0209 229.911 69.4452C230.133 66.8696 230.586 64.2386 229.958 61.7306C229.127 58.4128 226.376 55.7266 223.126 54.6553C219.876 53.5841 216.221 54.0414 213.164 55.5782L214.004 54.7854C213.334 54.9233 212.723 55.263 212.253 55.7587C211.782 56.2544 211.475 56.8822 211.373 57.5577C211.27 58.2331 211.378 58.9237 211.68 59.5364C211.982 60.1492 212.465 60.6545 213.064 60.9845C214.443 61.7446 216.322 61.5268 217.43 62.6442C218.521 63.7458 218.293 65.5539 217.899 67.0529C216.88 70.9333 215.263 74.6688 214.703 78.6403C214.143 82.6118 214.851 87.0617 217.8 89.7835C219.967 91.7842 223.047 92.556 225.997 92.497C228.947 92.438 231.825 91.6314 234.663 90.8293C236.654 90.2671 238.901 89.4873 239.68 87.5711C240.291 86.0719 239.745 84.3004 238.733 83.0349Z" fill="#2F2E41"/>
<path d="M210.145 186.207L195.303 186.206V186.019C195.303 184.487 195.912 183.019 196.995 181.937C198.079 180.854 199.548 180.246 201.08 180.246H201.08L210.145 180.246L210.145 186.207Z" fill="#2F2E41"/>
<path d="M244.549 185.634L229.707 185.633V185.446C229.707 183.915 230.316 182.446 231.399 181.364C232.482 180.281 233.952 179.673 235.484 179.673H235.484L244.549 179.673L244.549 185.634Z" fill="#2F2E41"/>
</g>
<defs>
<clipPath id="clip0_28_78">
<rect width="272" height="188" fill="white"/>
</clipPath>
</defs>
</svg>
